<svg width="16" height="16" viewBox="0 0 16 16" fill="none" xmlns="http://www.w3.org/2000/svg">
<path d="M14.7012 0.886719C14.9199 1.02344 15.0293 1.26953 14.9473 1.51562L13.1973 13.3281C13.1699 13.5195 13.0605 13.7109 12.8691 13.793C12.7871 13.8477 12.6777 13.9023 12.5684 13.9023C12.459 13.9023 12.377 13.875 12.2949 13.8477L9.61523 12.6992L6.58008 14.668C6.4707 14.7227 6.33398 14.75 6.22461 14.75C6.14258 14.75 6.0332 14.7227 5.92383 14.6953C5.70508 14.5586 5.5957 14.3398 5.5957 14.0938V11.0039L1.38477 9.25391C1.16602 9.14453 1.00195 8.92578 1.00195 8.67969C0.974609 8.43359 1.11133 8.1875 1.33008 8.07812L14.0176 0.859375C14.2363 0.722656 14.5098 0.75 14.7012 0.886719ZM11.0918 4.03125L3.13477 8.54297L5.97852 9.74609L11.0918 4.03125ZM6.88086 12.8906L8.13867 12.0977L6.88086 11.5508V12.8906ZM12.0488 12.2891L13.3613 3.45703L7.23633 10.2656L12.0488 12.2891Z" fill="white"/>
</svg>
