<svg width="16" height="16" viewBox="0 0 14 15" fill="none" xmlns="http://www.w3.org/2000/svg">
<path d="M2.6875 7.71875C2.3125 8.125 1.65625 8.125 1.28125 7.71875C0.875 7.34375 0.875 6.6875 1.28125 6.3125L6.28125 1.3125C6.65625 0.90625 7.3125 0.90625 7.6875 1.3125L12.6875 6.3125C13.0938 6.6875 13.0938 7.34375 12.6875 7.71875C12.5 7.90625 12.25 8 12 8C11.7188 8 11.4688 7.90625 11.2812 7.71875L7 3.4375L2.6875 7.71875ZM7.6875 7.3125L12.6875 12.3125C13.0938 12.6875 13.0938 13.3438 12.6875 13.7188C12.5 13.9062 12.25 14 12 14C11.7188 14 11.4688 13.9062 11.2812 13.7188L7 9.4375L2.6875 13.7188C2.3125 14.125 1.65625 14.125 1.28125 13.7188C0.875 13.3438 0.875 12.6875 1.28125 12.3125L6.28125 7.3125C6.65625 6.90625 7.3125 6.90625 7.6875 7.3125Z" fill="#3E3232" fill-opacity="0.75"/>
</svg>
