<svg width="120" height="96" viewBox="0 0 120 96" fill="none" xmlns="http://www.w3.org/2000/svg">
<path d="M95.8125 18C102.562 18 107.812 23.4375 107.812 30V78C107.812 84.75 102.375 90 95.8125 90H23.8125C17.0625 90 11.8125 84.75 11.8125 78V18C11.8125 11.4375 17.0625 6 23.8125 6H45.9375C49.125 6 52.125 7.3125 54.375 9.5625L63.5625 18H95.8125ZM98.8125 78V30C98.8125 28.5 97.3125 27 95.8125 27H59.8125L47.8125 15.9375C47.25 15.375 46.5 15 45.75 15H23.8125C22.125 15 20.8125 16.5 20.8125 18V78C20.8125 79.6875 22.125 81 23.8125 81H95.8125C97.3125 81 98.8125 79.6875 98.8125 78Z" fill="#3E3232" fill-opacity="0.25"/>
</svg>
