<svg width="59" height="57" viewBox="0 0 59 57" fill="none" xmlns="http://www.w3.org/2000/svg">
<path d="M17.162 44.0042L16.8608 43.7208H16.9405C17.098 43.6727 17.2298 43.564 17.3071 43.4187C17.3844 43.2734 17.4007 43.1034 17.3525 42.946C17.3044 42.7887 17.1956 42.6569 17.0502 42.5797C16.9048 42.5025 16.7347 42.4861 16.5772 42.5343L16.143 42.6671L15.8063 42.7734L14.9203 41.9853L16.0279 41.6488L16.2848 41.8879L16.6836 42.2509C16.8051 42.3319 16.9514 42.3673 17.0966 42.351C17.2417 42.3348 17.3765 42.2678 17.4771 42.162C17.5777 42.0562 17.6377 41.9182 17.6465 41.7725C17.6554 41.6268 17.6124 41.4827 17.5253 41.3655V41.3655L17.4013 41.2504L17.7912 41.1352C17.9475 41.0844 18.0777 40.9743 18.1539 40.8287C18.2301 40.683 18.2462 40.5134 18.1987 40.356C18.1755 40.2772 18.1367 40.2037 18.0847 40.14C18.0328 40.0763 17.9686 40.0235 17.8961 39.9848C17.8235 39.946 17.7439 39.9221 17.662 39.9144C17.5801 39.9067 17.4975 39.9153 17.419 39.9398L17.0291 40.0638V39.9753C17.0474 39.8956 17.0498 39.8131 17.0361 39.7325C17.0224 39.6519 16.9928 39.5748 16.9492 39.5057C16.9055 39.4366 16.8486 39.3768 16.7818 39.3297C16.7149 39.2826 16.6393 39.2492 16.5595 39.2315C16.3974 39.1943 16.2271 39.2228 16.086 39.3108C15.9448 39.3987 15.8443 39.5389 15.8063 39.7008L15.7089 40.1435L15.6291 40.4888L14.5658 40.7988L14.8228 39.6742L15.1506 39.5768L15.6734 39.4086C15.8093 39.3432 15.9171 39.2312 15.9772 39.0931C16.0374 38.9549 16.0459 38.7998 16.0013 38.6559C15.958 38.5128 15.8638 38.3906 15.7364 38.3123C15.6091 38.234 15.4574 38.205 15.3101 38.2309V38.2309L15.1506 38.284L15.2393 37.8855C15.2576 37.8059 15.2599 37.7234 15.2462 37.6428C15.2325 37.5622 15.203 37.4851 15.1593 37.416C15.1157 37.3469 15.0588 37.287 14.9919 37.24C14.925 37.1929 14.8495 37.1595 14.7696 37.1417C14.6899 37.1222 14.6069 37.1189 14.5259 37.1321C14.4448 37.1452 14.3672 37.1746 14.2977 37.2184C14.2282 37.2622 14.1683 37.3196 14.1215 37.387C14.0747 37.4545 14.042 37.5307 14.0253 37.611L13.9367 38.0095L13.8658 37.9475C13.7483 37.8301 13.589 37.7641 13.4228 37.7641C13.2566 37.7641 13.0972 37.8301 12.9797 37.9475C12.8622 38.0649 12.7962 38.2242 12.7962 38.3903C12.7962 38.5563 12.8622 38.7156 12.9797 38.833L13.3165 39.1429L13.5734 39.382L13.3165 40.5066L12.4304 39.7185L12.5101 39.382L12.6253 38.8507C12.6468 38.697 12.6097 38.5408 12.5215 38.413C12.4333 38.2853 12.3003 38.1953 12.1489 38.1608C11.9974 38.1263 11.8385 38.1498 11.7036 38.2267C11.5687 38.3036 11.4676 38.4284 11.4203 38.5762V38.5762V38.7444L11.119 38.4699C11.065 38.3974 10.9959 38.3375 10.9164 38.2945C10.8368 38.2515 10.7488 38.2263 10.6586 38.2209C10.5683 38.2154 10.4779 38.2297 10.3937 38.2629C10.3096 38.296 10.2337 38.3471 10.1714 38.4127C10.1091 38.4782 10.0619 38.5565 10.0331 38.6422C10.0043 38.7279 9.99463 38.8188 10.0047 38.9087C10.0148 38.9985 10.0444 39.085 10.0915 39.1622C10.1386 39.2394 10.202 39.3053 10.2772 39.3554L10.5696 39.6299H10.4899C10.3319 39.679 10.1996 39.7883 10.1216 39.9341C10.0437 40.08 10.0264 40.2506 10.0734 40.4091C10.0976 40.4872 10.1371 40.5597 10.1894 40.6225C10.2418 40.6852 10.3061 40.737 10.3785 40.7749C10.451 40.8127 10.5302 40.8359 10.6117 40.843C10.6932 40.8502 10.7752 40.8411 10.8532 40.8165L11.2962 40.6836L11.6241 40.5774L12.5101 41.3655L11.4025 41.7108L11.1544 41.4717L10.7557 41.0998C10.634 41.0243 10.4899 40.9932 10.3479 41.0118C10.2059 41.0304 10.0746 41.0975 9.97653 41.2018C9.87842 41.3061 9.81946 41.4412 9.80966 41.584C9.79986 41.7268 9.83985 41.8686 9.9228 41.9853L10.0468 42.1093L9.66583 42.2244C9.58693 42.2476 9.51345 42.2864 9.44967 42.3383C9.38589 42.3902 9.33307 42.4543 9.29432 42.5268C9.25556 42.5993 9.23165 42.6788 9.22393 42.7607C9.21621 42.8425 9.22485 42.9251 9.24937 43.0036C9.29847 43.1615 9.40783 43.2937 9.55377 43.3716C9.69972 43.4495 9.8705 43.4668 10.0291 43.4198L10.419 43.2958V43.3844C10.3826 43.5452 10.4116 43.7139 10.4997 43.8534C10.5877 43.9929 10.7276 44.0917 10.8886 44.1281C11.0496 44.1645 11.2184 44.1356 11.358 44.0475C11.4976 43.9595 11.5965 43.8197 11.6329 43.6588L11.7304 43.2072L11.8101 42.8708L12.9177 42.5254L12.6608 43.65L12.3241 43.7562L11.8101 43.9245C11.6721 43.9851 11.5614 44.0946 11.4992 44.2319C11.4371 44.3692 11.4279 44.5246 11.4734 44.6683C11.5184 44.8126 11.6139 44.9359 11.7425 45.0156C11.8711 45.0953 12.024 45.126 12.1734 45.1021V45.1021L12.3329 45.0579L12.2532 45.4475C12.2335 45.5278 12.2301 45.6112 12.2432 45.6928C12.2563 45.7744 12.2856 45.8525 12.3294 45.9227C12.3731 45.9928 12.4304 46.0535 12.498 46.1011C12.5656 46.1488 12.642 46.1825 12.7228 46.2002C12.8836 46.2347 13.0516 46.2049 13.1907 46.1172C13.3298 46.0295 13.4291 45.8908 13.4671 45.7309L13.5557 45.3324L13.6266 45.3944C13.6843 45.4533 13.7533 45.5001 13.8293 45.532C13.9054 45.5639 13.9871 45.5804 14.0696 45.5804C14.1521 45.5804 14.2338 45.5639 14.3099 45.532C14.386 45.5001 14.4549 45.4533 14.5127 45.3944C14.6295 45.2766 14.6951 45.1175 14.6951 44.9516C14.6951 44.7858 14.6295 44.6266 14.5127 44.5089L14.176 44.199L13.919 43.9599L14.176 42.8353L15.0177 43.6146L14.9468 43.9599L14.8228 44.4823C14.808 44.6316 14.848 44.7812 14.9352 44.9033C15.0224 45.0254 15.1509 45.1118 15.297 45.1464C15.4431 45.181 15.5967 45.1615 15.7295 45.0915C15.8623 45.0215 15.9651 44.9057 16.019 44.7657V44.7657V44.5974L16.3203 44.8719C16.4381 44.9887 16.5973 45.0543 16.7633 45.0543C16.9293 45.0543 17.0885 44.9887 17.2063 44.8719C17.3143 44.7504 17.3701 44.5913 17.3618 44.429C17.3535 44.2667 17.2818 44.1141 17.162 44.0042V44.0042Z" fill="white"/>
<path d="M45.3671 43.8804L45.0658 43.6059H45.1456C45.3036 43.5569 45.4359 43.4476 45.5138 43.3017C45.5918 43.1559 45.6091 42.9852 45.562 42.8267C45.5378 42.7487 45.4984 42.6762 45.446 42.6134C45.3937 42.5506 45.3294 42.4988 45.2569 42.461C45.1844 42.4231 45.1052 42.4 45.0237 42.3928C44.9423 42.3857 44.8602 42.3947 44.7823 42.4194L44.3481 42.5522L44.0114 42.6585L43.1253 41.8704L44.2329 41.5339L44.4898 41.773L44.8797 42.136C45.0013 42.217 45.1476 42.2524 45.2927 42.2361C45.4379 42.2199 45.5727 42.1529 45.6733 42.0471C45.7739 41.9413 45.8339 41.8033 45.8427 41.6576C45.8515 41.5119 45.8086 41.3678 45.7215 41.2506V41.2506L45.5974 41.1355L45.9785 41.0115C46.1365 40.9624 46.2688 40.8531 46.3467 40.7073C46.4247 40.5614 46.442 40.3908 46.3949 40.2323C46.3707 40.1542 46.3313 40.0817 46.2789 40.019C46.2266 39.9562 46.1623 39.9044 46.0898 39.8665C46.0174 39.8287 45.9381 39.8055 45.8567 39.7984C45.7752 39.7912 45.6931 39.8003 45.6152 39.8249L45.2253 39.9401V39.8604C45.245 39.7813 45.2486 39.699 45.236 39.6185C45.2234 39.5379 45.1947 39.4607 45.1518 39.3914C45.1089 39.3221 45.0525 39.2621 44.986 39.2149C44.9195 39.1677 44.8442 39.1343 44.7645 39.1166C44.6036 39.0791 44.4345 39.1064 44.2936 39.1926C44.1526 39.2787 44.0513 39.4168 44.0114 39.577L43.9139 40.0286L43.8342 40.3739L42.7266 40.7104L42.9924 39.5859L43.3202 39.4796L43.843 39.3202C43.9785 39.2544 44.0859 39.1421 44.1455 39.0038C44.2052 38.8656 44.2132 38.7105 44.1682 38.5668C44.1231 38.4231 44.0279 38.3004 43.9 38.2209C43.772 38.1414 43.6197 38.1105 43.4709 38.1337V38.1337L43.3025 38.1868L43.4 37.7884C43.4183 37.7087 43.4207 37.6262 43.4069 37.5456C43.3932 37.465 43.3637 37.388 43.3201 37.3188C43.2764 37.2497 43.2195 37.1899 43.1526 37.1428C43.0857 37.0957 43.0102 37.0623 42.9304 37.0446C42.8506 37.025 42.7677 37.0217 42.6866 37.0349C42.6055 37.0481 42.5279 37.0774 42.4585 37.1212C42.389 37.165 42.3291 37.2224 42.2823 37.2898C42.2355 37.3573 42.2028 37.4335 42.1861 37.5139L42.0886 37.9035L42.0266 37.8504C41.9684 37.7922 41.8993 37.7461 41.8233 37.7146C41.7473 37.6832 41.6658 37.667 41.5835 37.667C41.5012 37.667 41.4198 37.6832 41.3437 37.7146C41.2677 37.7461 41.1987 37.7922 41.1405 37.8504C41.0823 37.9085 41.0362 37.9775 41.0047 38.0535C40.9732 38.1294 40.957 38.2109 40.957 38.2931C40.957 38.3753 40.9732 38.4567 41.0047 38.5327C41.0362 38.6087 41.0823 38.6777 41.1405 38.7358L41.4772 39.0546L41.7342 39.2937L41.4861 40.4182L40.6 39.6301L40.6797 39.2937L40.7949 38.7624C40.8072 38.6116 40.7647 38.4615 40.6752 38.3395C40.5857 38.2175 40.4552 38.1319 40.3076 38.0983C40.161 38.0654 40.0075 38.0867 39.8755 38.1584C39.7435 38.23 39.642 38.3471 39.5898 38.4879V38.4879V38.6561L39.2886 38.3816C39.2346 38.3091 39.1655 38.2492 39.086 38.2062C39.0064 38.1631 38.9184 38.138 38.8281 38.1326C38.7378 38.1271 38.6475 38.1414 38.5633 38.1745C38.4792 38.2077 38.4033 38.2588 38.341 38.3243C38.2787 38.3899 38.2315 38.4682 38.2027 38.5539C38.1739 38.6396 38.1642 38.7305 38.1743 38.8203C38.1844 38.9101 38.214 38.9967 38.2611 39.0739C38.3081 39.151 38.3716 39.217 38.4468 39.2671L38.7392 39.5416H38.6595C38.5015 39.5906 38.3692 39.7 38.2912 39.8458C38.2133 39.9917 38.196 40.1623 38.243 40.3208C38.2672 40.3989 38.3067 40.4714 38.359 40.5341C38.4114 40.5969 38.4757 40.6487 38.5481 40.6866C38.6206 40.7244 38.6998 40.7476 38.7813 40.7547C38.8628 40.7618 38.9448 40.7528 39.0228 40.7281L39.4569 40.5953L39.7937 40.4891L40.6797 41.2771L39.5721 41.6225L39.324 41.3745L38.9253 41.0115C38.8019 40.9246 38.651 40.8856 38.501 40.9019C38.3509 40.9182 38.2119 40.9887 38.1101 41.1C38.011 41.2143 37.9564 41.3605 37.9564 41.5118C37.9564 41.663 38.011 41.8092 38.1101 41.9235V41.9235L38.2341 42.0475L37.8531 42.1626C37.7752 42.1864 37.7027 42.2254 37.6398 42.2772C37.5769 42.3291 37.5248 42.3928 37.4865 42.4647C37.4483 42.5367 37.4246 42.6154 37.4168 42.6965C37.409 42.7777 37.4173 42.8595 37.4411 42.9374C37.465 43.0153 37.504 43.0878 37.5558 43.1506C37.6077 43.2135 37.6714 43.2655 37.7434 43.3037C37.8154 43.342 37.8943 43.3656 37.9754 43.3734C38.0566 43.3812 38.1385 43.373 38.2164 43.3491L38.6063 43.234V43.3226C38.588 43.4022 38.5856 43.4847 38.5993 43.5653C38.6131 43.6459 38.6426 43.723 38.6862 43.7921C38.7299 43.8613 38.7868 43.9211 38.8537 43.9681C38.9206 44.0152 38.9961 44.0486 39.0759 44.0664C39.2368 44.1009 39.4047 44.0711 39.5439 43.9834C39.683 43.8957 39.7822 43.757 39.8202 43.5971L39.9177 43.1455L39.9975 42.809L41.0962 42.4637L40.8481 43.5882L40.5114 43.6945L39.9886 43.8539C39.8506 43.9145 39.7398 44.024 39.6777 44.1613C39.6155 44.2986 39.6063 44.454 39.6519 44.5977C39.6952 44.7431 39.7904 44.8675 39.9194 44.9475C40.0484 45.0274 40.2023 45.0574 40.3519 45.0315L40.5114 44.9784L40.4228 45.3769C40.4044 45.4566 40.4021 45.539 40.4158 45.6196C40.4295 45.7002 40.459 45.7773 40.5027 45.8464C40.5463 45.9156 40.6032 45.9754 40.6701 46.0225C40.737 46.0695 40.8125 46.1029 40.8924 46.1207C41.0545 46.1578 41.2247 46.1293 41.3659 46.0414C41.507 45.9534 41.6076 45.8132 41.6455 45.6514L41.7342 45.2618L41.7962 45.3237C41.9137 45.4412 42.0731 45.5071 42.2392 45.5071C42.4054 45.5071 42.5648 45.4412 42.6823 45.3237C42.7998 45.2063 42.8658 45.0471 42.8658 44.881C42.8658 44.7149 42.7998 44.5557 42.6823 44.4383L42.3456 44.1284L42.0886 43.8893L42.3456 42.7559L43.1873 43.5439L43.1076 43.8804L42.9924 44.4117C42.9805 44.56 43.0224 44.7076 43.1104 44.8276C43.1985 44.9476 43.3267 45.032 43.4718 45.0653C43.6169 45.0986 43.7692 45.0786 43.9008 45.009C44.0324 44.9394 44.1345 44.8248 44.1886 44.6862V44.6862V44.5091L44.4898 44.7836C44.5476 44.8425 44.6165 44.8893 44.6926 44.9213C44.7687 44.9532 44.8504 44.9697 44.9329 44.9697C45.0154 44.9697 45.0971 44.9532 45.1732 44.9213C45.2492 44.8893 45.3182 44.8425 45.3759 44.7836C45.4348 44.7238 45.4813 44.653 45.5128 44.5752C45.5442 44.4973 45.56 44.4141 45.5591 44.3302C45.5583 44.2463 45.541 44.1633 45.508 44.0862C45.475 44.009 45.4271 43.9391 45.3671 43.8804Z" fill="white"/>
<path d="M32.739 49.2106L32.3314 48.8299H32.4465C32.6246 48.7312 32.7632 48.5743 32.8391 48.3855C32.9149 48.1967 32.9235 47.9875 32.8631 47.7932C32.8028 47.5989 32.6774 47.4312 32.5079 47.3185C32.3384 47.2057 32.1353 47.1547 31.9326 47.174L31.3301 47.3688L30.8605 47.5105L29.6909 46.4214L31.2149 45.9521L31.5782 46.2797L32.1276 46.7933C32.3 46.9105 32.5082 46.9632 32.7156 46.9422C32.9231 46.9211 33.1165 46.8277 33.2618 46.6782C33.3967 46.5184 33.4707 46.3161 33.4707 46.107C33.4707 45.898 33.3967 45.6957 33.2618 45.5359V45.5359L33.0934 45.3677L33.625 45.2083C33.7568 45.1973 33.8845 45.157 33.9986 45.0903C34.1128 45.0236 34.2105 44.9322 34.2848 44.8228C34.359 44.7134 34.4078 44.5889 34.4275 44.4582C34.4473 44.3275 34.4375 44.1941 34.399 44.0677C34.3604 43.9413 34.294 43.8251 34.2047 43.7277C34.1154 43.6302 34.0053 43.554 33.8827 43.5046C33.76 43.4552 33.6279 43.4338 33.4959 43.4421C33.3639 43.4504 33.2355 43.4881 33.12 43.5524L32.5795 43.7207V43.6056C32.5803 43.4048 32.5128 43.2098 32.3882 43.0523C32.2635 42.8949 32.089 42.7846 31.8933 42.7393C31.6976 42.694 31.4923 42.7165 31.3111 42.8031C31.1299 42.8897 30.9835 43.0353 30.8959 43.216L30.7541 43.8358L30.6478 44.3139L29.1149 44.7833L29.4693 43.2248L29.9301 43.0831L30.6567 42.8529C30.8445 42.7611 30.9938 42.6058 31.0781 42.4146C31.1624 42.2234 31.1763 42.0086 31.1174 41.8081C31.051 41.6103 30.9167 41.4423 30.7384 41.3337C30.5601 41.2252 30.3491 41.1831 30.1427 41.2148V41.2148L29.9124 41.2856L30.0364 40.7366C30.0798 40.5153 30.037 40.2858 29.9168 40.0949C29.7966 39.904 29.608 39.7662 29.3896 39.7095C29.1668 39.6636 28.9349 39.7052 28.7419 39.8255C28.5489 39.9459 28.4096 40.1357 28.3529 40.3559L28.2288 40.9049L28.1402 40.8163C27.9807 40.6719 27.774 40.5904 27.5587 40.5872C27.3435 40.5839 27.1344 40.6591 26.9706 40.7986C26.822 40.9684 26.7438 41.1885 26.752 41.4139C26.7602 41.6394 26.8543 41.8532 27.0149 42.0117L27.4845 42.4456L27.839 42.7732L27.4845 44.3405L26.306 43.2514L26.4212 42.7821L26.5896 42.0471C26.5846 41.8503 26.5141 41.6608 26.3893 41.5085C26.2645 41.3562 26.0925 41.2498 25.9004 41.2062C25.7083 41.1625 25.5071 41.184 25.3287 41.2674C25.1502 41.3507 25.0046 41.4911 24.9149 41.6664L24.8706 41.8966L24.4542 41.5158C24.3788 41.4068 24.28 41.316 24.1649 41.2502C24.0498 41.1844 23.9214 41.1453 23.7891 41.1357C23.6569 41.1261 23.5242 41.1463 23.4007 41.1948C23.2773 41.2432 23.1664 41.3188 23.0761 41.4158C22.9858 41.5128 22.9184 41.6289 22.879 41.7554C22.8395 41.8819 22.829 42.0156 22.8481 42.1467C22.8673 42.2779 22.9157 42.403 22.9896 42.513C23.0636 42.6229 23.1614 42.7149 23.2757 42.7821L23.6921 43.1628H23.5769C23.4434 43.1713 23.3134 43.2099 23.1969 43.2757C23.0804 43.3415 22.9803 43.4328 22.9041 43.5428C22.828 43.6528 22.7777 43.7786 22.7572 43.9108C22.7367 44.043 22.7464 44.1781 22.7856 44.306C22.8249 44.4339 22.8926 44.5512 22.9837 44.6492C23.0748 44.7472 23.1869 44.8233 23.3116 44.8718C23.4364 44.9203 23.5705 44.9399 23.704 44.9292C23.8374 44.9184 23.9666 44.8776 24.082 44.8098L24.6934 44.6239L25.1542 44.4822L26.3238 45.5713L24.7997 46.0406L24.4453 45.713L23.8959 45.1994C23.7232 45.1088 23.5254 45.0776 23.3331 45.1108C23.1409 45.144 22.965 45.2397 22.8327 45.383C22.7004 45.5263 22.6191 45.7092 22.6015 45.9033C22.5839 46.0975 22.6309 46.2921 22.7352 46.4568L22.9124 46.625L22.3719 46.7844C22.1938 46.8831 22.0552 47.04 21.9793 47.2288C21.9035 47.4176 21.895 47.6268 21.9553 47.8211C22.0156 48.0154 22.141 48.1831 22.3105 48.2958C22.48 48.4086 22.6831 48.4596 22.8858 48.4403L23.4174 48.272V48.3871C23.3719 48.611 23.4147 48.8438 23.5369 49.0368C23.6591 49.2299 23.8512 49.3683 24.0731 49.4231C24.2946 49.4665 24.5243 49.4237 24.7153 49.3036C24.9063 49.1835 25.0443 48.995 25.101 48.7768L25.2427 48.1569L25.3491 47.6787L26.882 47.2094L26.5276 48.7679L26.0668 48.9096L25.3491 49.1309C25.1821 49.2339 25.054 49.3894 24.985 49.5729C24.916 49.7565 24.9099 49.9578 24.9676 50.1452C25.0254 50.3326 25.1438 50.4955 25.3042 50.6084C25.4647 50.7214 25.6581 50.7779 25.8541 50.7691L26.0845 50.6982L25.9605 51.2384C25.9025 51.358 25.8722 51.4892 25.8719 51.6221C25.8716 51.7551 25.9012 51.8864 25.9586 52.0064C26.016 52.1263 26.0997 52.2318 26.2035 52.315C26.3073 52.3982 26.4284 52.457 26.558 52.487C26.6877 52.517 26.8224 52.5174 26.9522 52.4882C27.082 52.4591 27.2036 52.4011 27.3079 52.3186C27.4122 52.2361 27.4966 52.1312 27.5548 52.0116C27.613 51.8921 27.6435 51.7609 27.644 51.628L27.7681 51.079L27.8656 51.1587C28.0385 51.2533 28.238 51.2875 28.4326 51.256C28.6272 51.2246 28.8057 51.1291 28.94 50.9848C29.0742 50.8405 29.1564 50.6556 29.1737 50.4594C29.1909 50.2631 29.1422 50.0667 29.0352 49.9013L28.5655 49.4674L28.2111 49.1309L28.5655 47.5725L29.744 48.6616L29.6377 49.1309L29.4693 49.8659C29.463 50.067 29.5253 50.2642 29.6461 50.4252C29.7669 50.5861 29.9389 50.7011 30.1339 50.7513C30.3377 50.7931 30.5497 50.7619 30.7328 50.6631C30.9158 50.5644 31.0583 50.4044 31.1352 50.2112V50.2112L31.1883 49.981L31.6048 50.3617C31.7747 50.5103 31.9949 50.5884 32.2205 50.5802C32.4461 50.572 32.6601 50.478 32.8187 50.3175C32.9336 50.1515 32.9884 49.9513 32.9739 49.75C32.9594 49.5487 32.8765 49.3584 32.739 49.2106V49.2106Z" fill="white"/>
<path d="M24.4196 27.437C24.3249 26.7266 24.059 26.0498 23.6448 25.4648C23.2306 24.8797 22.6804 24.4039 22.0416 24.0782C21.4028 23.7525 20.6945 23.5866 19.9774 23.5948C19.2602 23.603 18.5559 23.7851 17.9247 24.1253C17.729 22.8346 17.0887 21.6526 16.1141 20.7833C15.1396 19.914 13.8919 19.4119 12.5865 19.3636C11.2811 19.3153 9.99972 19.7239 8.96354 20.5188C7.92736 21.3138 7.20132 22.4452 6.91073 23.718C6.45196 23.5903 5.9781 23.5247 5.50187 23.5232C4.82763 23.4936 4.15515 23.6124 3.53192 23.8712C2.90869 24.13 2.34995 24.5224 1.89521 25.0207C1.44048 25.5191 1.10084 26.1112 0.900323 26.7552C0.699805 27.3991 0.643307 28.0793 0.734806 28.7475C2.07278 36.3183 25.2437 36.1146 24.4196 27.437Z" fill="white"/>
<path d="M45.8541 20.84C39.9528 20.84 33.6528 18.8565 32.8731 14.4291C32.7289 13.6487 32.7615 12.846 32.9685 12.0798C33.1755 11.3137 33.5517 10.6036 34.0693 10.0018C34.3368 9.68003 34.6334 9.38362 34.9554 9.11629C34.3983 7.75913 33.4234 6.61446 32.1717 5.8481C30.9201 5.08174 29.4568 4.73351 27.9939 4.85386C26.531 4.97421 25.1444 5.55686 24.035 6.51745C22.9257 7.47803 22.1512 8.76665 21.8237 10.1966C21.246 10.041 20.6499 9.96353 20.0516 9.96633C18.3327 9.96498 16.6749 10.6038 15.4019 11.758C14.1289 12.9123 13.332 14.4992 13.1668 16.2089C12.1131 15.6195 10.9236 15.3154 9.71612 15.3269C8.50865 15.3383 7.32513 15.6649 6.28287 16.2743C5.24062 16.8836 4.37581 17.7546 3.77415 18.8008C3.1725 19.8471 2.8549 21.0323 2.85282 22.239C2.83959 22.4572 2.83959 22.6761 2.85282 22.8943C3.66249 22.5271 4.5422 22.3398 5.4313 22.3453H6.04269C6.56062 21.0886 7.44484 20.0167 8.58046 19.2688C9.71607 18.5209 11.0505 18.1317 12.4104 18.1518C13.7703 18.1718 15.0927 18.6002 16.2057 19.3812C17.3188 20.1623 18.1709 21.2598 18.6515 22.5312C19.4174 22.3625 20.2099 22.3535 20.9794 22.505C21.7488 22.6564 22.4787 22.965 23.1233 23.4113C23.768 23.8577 24.3135 24.4323 24.7256 25.099C25.1378 25.7658 25.4077 26.5104 25.5186 27.2862C25.5971 28.0731 25.5055 28.8677 25.2503 29.6162C24.995 30.3647 24.5819 31.0498 24.0389 31.6251C23.1632 32.5319 22.1147 33.2544 20.9553 33.7502C23.0933 35.1926 25.6244 35.9409 28.2035 35.893C32.749 35.893 36.5857 33.8122 37.8262 30.9521C38.6728 31.5852 39.6533 32.0161 40.6924 32.2116C41.7315 32.4071 42.8017 32.3621 43.8206 32.0799C44.8396 31.7978 45.7804 31.286 46.5706 30.584C47.3609 29.882 47.9797 29.0083 48.3794 28.03C51.9237 27.056 54.4136 24.4881 54.4136 21.5395C54.4114 20.7848 54.2482 20.0392 53.9351 19.3524C51.3645 20.3707 48.6191 20.8761 45.8541 20.84V20.84Z" fill="white"/>
<path d="M57.7095 12.9064C57.6057 12.1997 57.334 11.5281 56.9172 10.9479C56.5004 10.3677 55.9505 9.89569 55.3137 9.57142C54.6769 9.24716 53.9716 9.08005 53.2569 9.0841C52.5421 9.08815 51.8388 9.26323 51.2057 9.59469C51.0053 8.30879 50.3633 7.13264 49.39 6.26802C48.4167 5.40341 47.1726 4.90418 45.8712 4.85602C44.5698 4.80785 43.2922 5.21374 42.2575 6.00404C41.2229 6.79434 40.4956 7.91979 40.2006 9.18735C39.7406 9.06676 39.2673 9.0043 38.7917 9.00141C38.1191 8.97539 37.449 9.09726 36.8287 9.35838C36.2084 9.6195 35.653 10.0135 35.2017 10.5126C34.7504 11.0117 34.4143 11.6037 34.217 12.2468C34.0198 12.8899 33.9662 13.5685 34.0601 14.2346C35.3626 21.7877 58.5335 21.584 57.7095 12.9064Z" fill="white"/>
</svg>
