<svg width="58" height="57" viewBox="0 0 58 57" fill="none" xmlns="http://www.w3.org/2000/svg">
<path d="M47.2546 15.6949C46.5921 15.6976 45.9306 15.7462 45.2749 15.8402C44.5421 14.4318 43.4294 13.2565 42.0628 12.4474C40.6961 11.6382 39.1301 11.2275 37.542 11.2618C37.1639 11.2654 36.7862 11.2897 36.4107 11.3345C36.146 9.5737 35.2741 7.96064 33.9457 6.77406C32.6173 5.58748 30.9158 4.90191 29.1353 4.83583C27.3547 4.76975 25.6071 5.32731 24.1942 6.41216C22.7814 7.49701 21.7922 9.04101 21.3975 10.7773C20.7702 10.609 20.1238 10.5222 19.4744 10.5189C17.5735 10.5198 15.7408 11.2269 14.3325 12.5029C12.9243 13.7788 12.0411 15.5324 11.8546 17.4229C10.8344 16.8483 9.69589 16.5154 8.52669 16.4498C7.35749 16.3842 6.18881 16.5876 5.11067 17.0444C4.03253 17.5012 3.07369 18.1992 2.30798 19.0846C1.54228 19.9701 0.990146 21.0193 0.694107 22.1515C0.398067 23.2838 0.366019 24.4688 0.600431 25.6154C0.834843 26.7619 1.32946 27.8394 2.04619 28.7649C2.76292 29.6904 3.68264 30.4391 4.73452 30.9534C5.7864 31.4678 6.94237 31.7339 8.11341 31.7315C8.4922 31.7307 8.87038 31.701 9.24466 31.6427C9.612 32.6075 10.1708 33.4881 10.8875 34.2315C11.6042 34.9749 12.4639 35.5658 13.415 35.9686C14.3661 36.3714 15.3889 36.5779 16.4219 36.5755C17.4548 36.5731 18.4767 36.3619 19.4259 35.9547C21.4379 37.9169 24.7589 39.1846 28.5163 39.1846C33.5422 39.1846 37.7844 36.8914 39.1581 33.7341C40.0927 34.434 41.1755 34.9104 42.3232 35.1265C43.4709 35.3426 44.6529 35.2928 45.7783 34.9808C46.9037 34.6689 47.9426 34.1031 48.8149 33.327C49.6871 32.5509 50.3697 31.5852 50.8099 30.5042C54.7127 29.4221 57.4843 26.6202 57.4843 23.3337C57.4843 19.1267 52.9108 15.6949 47.2546 15.6949Z" fill="white"/>
<path d="M17.5185 46.1451C17.3891 46.9682 16.9393 47.7067 16.2673 48.1998C15.5953 48.6929 14.7554 48.9006 13.9309 48.7775C12.3633 48.4222 11.4421 46.6619 11.8542 44.8451C12.2663 43.0282 15.9833 39.879 15.9833 39.879C15.9833 39.879 17.9306 44.3202 17.5185 46.1451Z" fill="white"/>
<path d="M30.9479 48.8826C30.4146 51.1759 28.3864 52.6617 26.4148 52.2095C24.4432 51.7573 23.2635 49.5286 23.7968 47.2354C24.3301 44.9421 29.0005 40.9612 29.0005 40.9612C29.0005 40.9612 31.4731 46.5894 30.9479 48.8826Z" fill="white"/>
<path d="M43.5454 46.1451C43.5117 46.5647 43.388 46.9722 43.1826 47.3397C42.9772 47.7073 42.695 48.0263 42.3552 48.2751C42.0154 48.5239 41.626 48.6966 41.2134 48.7816C40.8008 48.8665 40.3747 48.8616 39.9642 48.7673C39.5536 48.6729 39.1683 48.4913 38.8343 48.2348C38.5003 47.9782 38.2255 47.6528 38.0286 47.2806C37.8317 46.9085 37.7173 46.4983 37.6933 46.078C37.6692 45.6578 37.736 45.2372 37.8892 44.8451C38.3013 43.0282 42.0101 39.879 42.0101 39.879C42.0101 39.879 43.9575 44.3202 43.5454 46.1451Z" fill="white"/>
</svg>
