<svg width="58" height="57" viewBox="0 0 58 57" fill="none" xmlns="http://www.w3.org/2000/svg">
<path d="M15.0412 39.6595C14.9956 37.8643 15.6653 36.1242 16.9037 34.8201C18.1422 33.5161 19.8485 32.7543 21.649 32.7016C22.279 32.7027 22.9052 32.7977 23.5069 32.9835C23.8894 31.6089 24.7087 30.3949 25.8418 29.5238C26.9749 28.6526 28.3608 28.1711 29.7916 28.1516C29.9855 28.1516 30.1874 28.1516 30.3813 28.1516C30.8349 26.8882 31.6655 25.7935 32.7616 25.0147C33.8576 24.2359 35.1666 23.8102 36.5125 23.7949C36.9552 23.7981 37.3965 23.8467 37.8292 23.9399C37.3015 19.6628 35.3915 15.6732 32.3878 12.5742C29.3841 9.47523 25.4502 7.43527 21.1805 6.7627C22.5886 9.78692 23.2093 13.1162 22.9852 16.4429C22.7611 19.7695 21.6994 22.9862 19.8983 25.7955C18.0971 28.6049 15.6147 30.9163 12.6803 32.5161C9.746 34.1158 6.4545 34.9524 3.11003 34.9484C2.06874 34.9459 1.02911 34.8652 0 34.7068C1.59452 38.1468 4.14342 41.06 7.34555 43.102C10.5477 45.1441 14.2692 46.2298 18.0705 46.2308C18.539 46.2308 18.9994 46.2308 19.4599 46.1744C18.1495 45.6604 17.026 44.7629 16.2373 43.5999C15.4485 42.437 15.0315 41.0632 15.0412 39.6595Z" fill="white"/>
<path d="M49.7039 33.2572C49.2281 33.2592 48.7531 33.2942 48.2822 33.3619C47.7923 32.3107 47.0093 31.4221 46.0267 30.8024C45.0441 30.1827 43.9034 29.8579 42.7407 29.8669C42.4705 29.8694 42.2007 29.8882 41.9329 29.9233C41.8169 28.6125 41.2259 27.3887 40.2703 26.4809C39.3148 25.5731 38.0602 25.0435 36.7413 24.9912C35.4224 24.9389 34.1295 25.3674 33.1046 26.1967C32.0797 27.0259 31.393 28.199 31.173 29.4965C30.7232 29.3709 30.2587 29.3059 29.7917 29.3032C28.3879 29.3482 27.0512 29.9124 26.0418 30.886C25.0324 31.8595 24.4225 33.1727 24.3309 34.5699C23.5225 34.0804 22.5949 33.8213 21.6491 33.821C20.1709 33.9305 18.789 34.5931 17.7806 35.676C16.7721 36.7589 16.2117 38.1818 16.2117 39.6594C16.2117 41.137 16.7721 42.56 17.7806 43.6429C18.789 44.7257 20.1709 45.3884 21.6491 45.4979C21.9197 45.4937 22.1898 45.4695 22.4569 45.4254C22.8133 46.5054 23.4977 47.4481 24.4152 48.1233C25.3327 48.7985 26.4381 49.1728 27.5783 49.1942C28.3286 49.1947 29.07 49.0326 29.7513 48.7191C30.6189 49.5401 31.6408 50.1819 32.7582 50.6075C33.8756 51.0332 35.0664 51.2344 36.2621 51.1995C39.8649 51.1995 42.9103 49.4439 43.8958 47.036C44.8212 47.7853 45.9753 48.1972 47.1674 48.2037C48.284 48.1841 49.3682 47.8261 50.2758 47.1773C51.1834 46.5286 51.8715 45.6198 52.2485 44.5718C55.0435 43.7665 57.0387 41.6002 57.0387 39.0957C57.0468 35.8664 53.759 33.2572 49.7039 33.2572Z" fill="white"/>
</svg>
